<?xml version="1.0" encoding="utf-8"?><svg xmlns="http://www.w3.org/2000/svg" xmlns:xlink="http://www.w3.org/1999/xlink"><symbol viewBox="0 0 18 22" id="action-reload" xmlns="http://www.w3.org/2000/svg"><path fill-rule="evenodd" clip-rule="evenodd" d="M17.163 13.356a8.5 8.5 0 00-5.33-10.375 1 1 0 10-.667 1.886 6.5 6.5 0 012.405 10.747l-1.904 2.027v-2.475a1 1 0 10-2 0v5a1 1 0 001 1h5a1 1 0 000-2h-2.688l2.04-2.171a8.5 8.5 0 002.144-3.639zm-9.83-5.523a1 1 0 001-1v-5a1 1 0 00-1.004-1H2.333a1 1 0 000 2H5.02l-2.038 2.17a8.5 8.5 0 003.184 14.014 1 1 0 00.668-1.886A6.5 6.5 0 014.429 6.384l1.904-2.028v2.477a1 1 0 001 1z"/></symbol><symbol viewBox="0 0 24 30" id="book" xmlns="http://www.w3.org/2000/svg"><path fill-rule="evenodd" clip-rule="evenodd" d="M3.017 3.35a2.333 2.333 0 011.65-.683h17v18.057a.997.997 0 00-.334-.057H4.667c-.834 0-1.642.24-2.334.681V5c0-.619.246-1.212.684-1.65zM2.333 25a2.333 2.333 0 002.334 2.333H20.39a1 1 0 01-.058-.334v-4a1 1 0 01.057-.332H4.667A2.333 2.333 0 002.333 25zm-2 0a4.333 4.333 0 004.334 4.333h18a1 1 0 00.707-1.706l-1.04-1.042v-3.172l1.04-1.04a1 1 0 00.293-.708V1.667a1 1 0 00-1-1h-18A4.333 4.333 0 00.333 5v20z"/></symbol><symbol viewBox="0 0 26 30" id="clock" xmlns="http://www.w3.org/2000/svg"><path fill-rule="evenodd" clip-rule="evenodd" d="M13 .667a9 9 0 00-9 9c0 4.519-.967 7.351-1.878 9.02-.457.838-.905 1.394-1.223 1.73a4.354 4.354 0 01-.451.415l-.012.01.001-.002.004-.002.002-.002.003.003L1 22.666h24l.553-1.829.003-.003.001.001.002.002.003.002.002.001-.012-.009a4.357 4.357 0 01-.451-.416c-.318-.335-.767-.89-1.223-1.728C22.967 17.018 22 14.186 22 9.667a9 9 0 00-9-9zm9.747 20H3.253c.205-.298.415-.638.625-1.022C4.967 17.65 6 14.481 6 9.667a7 7 0 0114 0c0 4.814 1.033 7.982 2.122 9.978.21.384.42.724.625 1.022zm-11.189 5.831a1 1 0 10-1.73 1.004 3.667 3.667 0 006.344 0 1 1 0 00-1.73-1.004 1.667 1.667 0 01-2.884 0z"/></symbol><symbol viewBox="0 0 12 12" id="close" xmlns="http://www.w3.org/2000/svg"><path fill-rule="evenodd" clip-rule="evenodd" d="M11.707 1.707A1 1 0 0010.293.293L6 4.586 1.707.293A1 1 0 00.293 1.707L4.586 6 .293 10.293a1 1 0 101.414 1.414L6 7.414l4.293 4.293a1 1 0 001.414-1.414L7.414 6l4.293-4.293z"/></symbol><symbol viewBox="0 0 26 30" id="deals" xmlns="http://www.w3.org/2000/svg"><path fill-rule="evenodd" clip-rule="evenodd" d="M3.667.667A3.667 3.667 0 000 4.333v21.334a3.666 3.666 0 003.667 3.666H17a1 1 0 100-2H3.667A1.667 1.667 0 012 25.667V4.333a1.667 1.667 0 011.667-1.666h16c.92 0 1.666.746 1.666 1.666v.471a3.667 3.667 0 00-2.666 3.528v14.222a1 1 0 00.142.515l2.667 4.444a1 1 0 001.715 0l2.667-4.444a1 1 0 00.142-.515V8.332a3.667 3.667 0 00-2.667-3.528v-.47A3.667 3.667 0 0019.667.666h-16zm18.626 5.999a1.004 1.004 0 00.08 0A1.666 1.666 0 0124 8.332v13.945l-1.667 2.778-1.666-2.778V8.332a1.667 1.667 0 011.626-1.666zm-16.96 11a1 1 0 011-1h8a1 1 0 110 2h-8a1 1 0 01-1-1zm1-6.334a1 1 0 100 2H9a1 1 0 100-2H6.333zm-1-4.333a1 1 0 011-1h8a1 1 0 110 2h-8a1 1 0 01-1-1zm1 15.001a1 1 0 100 2h5.334a1 1 0 000-2H6.333z"/></symbol><symbol viewBox="0 0 18 5" id="dots" xmlns="http://www.w3.org/2000/svg"><path fill-rule="evenodd" clip-rule="evenodd" d="M2 .001a2 2 0 100 4 2 2 0 000-4zm5 2a2 2 0 114 0 2 2 0 01-4 0zm7 0a2 2 0 114 0 2 2 0 01-4 0z"/></symbol><symbol viewBox="0 0 18 5" id="dots-dark" xmlns="http://www.w3.org/2000/svg"><path fill-rule="evenodd" clip-rule="evenodd" d="M2 .002a2 2 0 100 4 2 2 0 000-4zm5 2a2 2 0 114 0 2 2 0 01-4 0zm7 0a2 2 0 114 0 2 2 0 01-4 0z"/></symbol><symbol viewBox="0 0 18 18" id="fullscreen" xmlns="http://www.w3.org/2000/svg"><path fill-rule="evenodd" clip-rule="evenodd" d="M11.5.502a1 1 0 100 2h2.586L9.96 6.628a1 1 0 101.414 1.414L15.5 3.916v2.586a1 1 0 102 0v-5a1 1 0 00-1-1h-5zM8.04 11.376a1 1 0 00-1.414-1.414L2.5 14.088v-2.586a1 1 0 10-2 0v5a1 1 0 001 1h5a1 1 0 100-2H3.914l4.126-4.126z"/></symbol><symbol viewBox="0 0 22 22" id="help-aside" xmlns="http://www.w3.org/2000/svg"><path fill-rule="evenodd" clip-rule="evenodd" d="M11 2.833a8.167 8.167 0 100 16.333 8.167 8.167 0 000-16.333zM.833 10.999C.833 5.384 5.385.833 11 .833s10.167 4.551 10.167 10.166S16.615 21.166 11 21.166.833 16.614.833 10.999zm10.478-3.966c-1.215-.212-2.312.45-2.704 1.533a1 1 0 11-1.88-.681c.724-2 2.762-3.2 4.928-2.822.984.172 1.918.572 2.61 1.312.706.753 1.068 1.76 1.068 2.96 0 1.656-1.261 2.75-2.171 3.338a9.125 9.125 0 01-1.894.926l-.038.013-.012.004-.004.001h-.002c-.001.001-.001.001-.31-.95l.309.951a1 1 0 01-.618-1.902h.001l.298.918-.297-.919.02-.007.088-.031a7.132 7.132 0 001.371-.682c.806-.522 1.26-1.094 1.26-1.66 0-.781-.227-1.271-.528-1.593-.314-.336-.805-.588-1.495-.709zM11 15a1 1 0 000 2h.008a1 1 0 100-2H11z"/></symbol><symbol viewBox="0 0 121 33" id="logo" xmlns="http://www.w3.org/2000/svg"><path d="M43.427 11.62h-3.971V9.703h10.24v1.919h-3.99V23h-2.28v-11.38zM51.64 9.702h4.675c1.684 0 2.945.392 3.78 1.178.85.772 1.274 1.824 1.274 3.154 0 1.342-.425 2.406-1.273 3.192-.836.772-2.097 1.159-3.781 1.159h-2.413v4.617H51.64v-13.3zm4.675 6.764c.975 0 1.678-.203 2.109-.608.443-.418.665-1.026.665-1.824 0-.786-.222-1.38-.665-1.786-.43-.418-1.134-.627-2.11-.627h-2.412v4.845h2.413zM63.51 12.932h1.956v1.615a2.943 2.943 0 011.083-1.254c.507-.342 1.102-.513 1.786-.513.14 0 .26.006.361.019.114.012.215.025.304.038.101.012.19.025.266.038v1.976a4.754 4.754 0 01-.418-.057 4.44 4.44 0 00-.456-.057 7.22 7.22 0 00-.55-.02c-.685 0-1.223.197-1.616.59-.38.38-.57.912-.57 1.596v6.099H63.51v-10.07zM74.489 23.154c-1.305 0-2.344-.393-3.116-1.178-.76-.798-1.14-1.945-1.14-3.44v-1.348c0-.684.095-1.299.285-1.843a3.943 3.943 0 01.855-1.387c.38-.38.83-.672 1.349-.874a4.927 4.927 0 011.767-.304c.646 0 1.228.101 1.748.304.532.202.982.494 1.349.874.38.38.665.842.855 1.387.203.544.304 1.159.304 1.843v1.349c0 1.494-.386 2.64-1.16 3.439-.76.785-1.791 1.178-3.096 1.178zm0-1.843c.658 0 1.171-.216 1.539-.646.38-.43.57-1.14.57-2.128v-1.35c0-.873-.19-1.52-.57-1.937-.368-.418-.88-.627-1.54-.627-.658 0-1.177.209-1.557.627-.367.418-.551 1.064-.551 1.938v1.349c0 .988.184 1.697.55 2.128.38.43.9.646 1.559.646zM79.696 24.997c.278 0 .513-.032.703-.095a.82.82 0 00.475-.304c.126-.152.215-.355.266-.608.05-.254.076-.583.076-.988v-10.07h2.128v10.07c0 .747-.057 1.361-.171 1.843-.114.494-.31.886-.59 1.178-.278.291-.652.494-1.12.608-.47.114-1.058.17-1.767.17v-1.804zM82.28 12c-.368 0-.684-.133-.95-.4a1.297 1.297 0 01-.4-.95c0-.367.134-.683.4-.95.266-.265.582-.398.95-.398.367 0 .684.133.95.399.266.266.399.582.399.95 0 .367-.133.684-.4.95a1.297 1.297 0 01-.95.399zM89.98 23.154c-.633 0-1.204-.102-1.71-.304a3.607 3.607 0 01-1.311-.893 4.087 4.087 0 01-.855-1.444c-.19-.57-.285-1.229-.285-1.976v-1.35c0-1.418.36-2.507 1.083-3.267.734-.76 1.729-1.14 2.983-1.14s2.242.38 2.964 1.14c.734.76 1.102 1.862 1.102 3.306v1.349h-5.985c.013 1.038.196 1.767.55 2.185.355.418.843.627 1.464.627.52 0 .905-.127 1.159-.38a1.61 1.61 0 00.494-.874h2.128c-.177.95-.583 1.69-1.216 2.223-.62.532-1.476.798-2.565.798zm-.057-8.607c-.608 0-1.083.183-1.425.55-.33.368-.507.995-.532 1.882h3.97c-.025-.887-.208-1.514-.55-1.881-.342-.368-.83-.551-1.463-.551zM99.85 23.154c-.632 0-1.202-.102-1.71-.304a3.607 3.607 0 01-1.31-.893 4.087 4.087 0 01-.855-1.444c-.19-.57-.285-1.229-.285-1.976v-1.35c0-.683.095-1.298.285-1.842a3.946 3.946 0 01.855-1.387c.367-.38.804-.672 1.31-.874.508-.203 1.078-.304 1.71-.304 1.179 0 2.116.304 2.813.912.697.608 1.083 1.4 1.159 2.375h-2.166a1.85 1.85 0 00-.551-1.007c-.279-.292-.697-.437-1.254-.437-.608 0-1.096.209-1.463.627-.367.418-.551 1.064-.551 1.938v1.349c0 .988.184 1.697.55 2.128.368.43.856.646 1.464.646.557 0 .975-.146 1.254-.437.291-.292.475-.627.551-1.007h2.166c-.152 1.026-.557 1.83-1.216 2.413-.659.582-1.577.874-2.755.874zM109.707 23.002c-.608 0-1.121-.057-1.539-.171a2.357 2.357 0 01-1.007-.551c-.253-.266-.437-.608-.551-1.026-.114-.43-.171-.95-.171-1.558v-4.96h-1.387v-1.804h1.387v-2.28h2.147v2.28h2.014v1.805h-2.014v4.959c0 .595.095.994.285 1.197.19.202.52.304.988.304h.741v1.805h-.893zM116.098 23.154c-.684 0-1.273-.076-1.767-.228a3.674 3.674 0 01-1.216-.627 2.637 2.637 0 01-.722-.95 3.705 3.705 0 01-.266-1.216h2.128c.051.38.203.684.456.912.253.228.716.342 1.387.342.709 0 1.197-.108 1.463-.323.279-.216.418-.494.418-.836 0-.165-.025-.317-.076-.456a.723.723 0 00-.285-.38c-.139-.114-.348-.222-.627-.323a7.438 7.438 0 00-1.121-.285c-1.203-.24-2.09-.59-2.66-1.045-.557-.456-.836-1.121-.836-1.995 0-.874.304-1.584.912-2.128.608-.558 1.545-.836 2.812-.836 1.254 0 2.172.278 2.755.836.595.544.918 1.254.969 2.128h-2.109c-.051-.38-.19-.672-.418-.874-.215-.216-.614-.323-1.197-.323-.608 0-1.032.101-1.273.304-.241.19-.361.462-.361.817 0 .152.025.297.076.437a.927.927 0 00.285.36c.139.102.336.197.589.286.266.088.602.17 1.007.247.659.114 1.216.26 1.672.437.469.164.849.373 1.14.627.291.24.5.532.627.874.139.342.209.74.209 1.197 0 .886-.323 1.615-.969 2.185-.633.557-1.634.836-3.002.836z"/><path fill-rule="evenodd" clip-rule="evenodd" d="M30.209 23.365A15.93 15.93 0 0032 16.002c0-3.002-.826-5.81-2.264-8.21l-.065.225c-.317 1.055-.823 2.226-1.65 3.155 1.052 1.703 2.295 4.389 2.295 8.274 0 .547-.265 1.057-.707 1.372.27.748.481 1.584.6 2.547zm-2.314 3.338a1.678 1.678 0 01-.198-.114l-.897-.598c-.417 1.348-1.3 2.647-2.632 3.771a16.073 16.073 0 003.727-3.06zm-4.678 3.582a1.684 1.684 0 01-2.011-1.652c0-.27-.01-.53-.026-.78l-.042.057c-.929 1.259-2.554 2.407-5.138 2.407s-4.21-1.148-5.138-2.407a5.315 5.315 0 01-.042-.058c-.017.25-.026.51-.026.781a1.684 1.684 0 01-2.011 1.652A15.932 15.932 0 0016 32.001c2.597 0 5.049-.618 7.217-1.716zm-15.385-.523C6.5 28.638 5.617 27.34 5.2 25.992l-.897.597c-.064.043-.13.08-.198.114a16.074 16.074 0 003.727 3.06zm-6.04-6.397A15.93 15.93 0 010 16.002c0-3.002.826-5.81 2.264-8.21l.065.225c.317 1.055.823 2.226 1.65 3.155-1.052 1.703-2.295 4.389-2.295 8.274 0 .547.265 1.057.707 1.372-.27.748-.481 1.584-.6 2.547zm5.45-20.756l3.558.896.055-.014c1.512-.392 3.328-.464 5.145.3 1.817-.764 3.633-.692 5.145-.3l.055.014 3.558-.896A15.925 15.925 0 0016 .002c-3.233 0-6.242.958-8.758 2.607z"/><path d="M3.11 3.038a.421.421 0 01.361-.076l7.35 1.85c.115-.034.232-.068.35-.098 1.457-.378 3.167-.399 4.829.473 1.662-.872 3.372-.85 4.828-.473.119.03.236.064.352.099l7.349-1.851a.421.421 0 01.524.408c0 1.176-.147 2.798-.592 4.284-.391 1.303-1.037 2.581-2.093 3.309 1.026 1.467 2.685 4.154 2.685 8.484a.42.42 0 01-.61.376l-.928-.464c.843 1.422 1.538 3.117 1.538 5.83a.42.42 0 01-.655.35L25.8 23.806c.139 1.691-.667 3.57-2.647 5.155a.421.421 0 01-.684-.329c0-1.686-.32-3.047-.713-4.084-.219.349-.504.647-.828.887a4.932 4.932 0 01-.807 1.724c-.708.961-1.968 1.894-4.121 1.894-2.153 0-3.413-.933-4.121-1.893a4.934 4.934 0 01-.807-1.725 3.284 3.284 0 01-.828-.887c-.394 1.037-.713 2.398-.713 4.084a.421.421 0 01-.684.329c-1.98-1.584-2.786-3.464-2.647-5.155l-2.598 1.731a.42.42 0 01-.655-.35c0-2.712.695-4.407 1.538-5.83l-.928.465a.421.421 0 01-.61-.377c0-4.33 1.659-7.016 2.685-8.483-1.056-.728-1.702-2.006-2.093-3.31-.445-1.485-.592-3.107-.592-4.283 0-.13.06-.252.163-.332z"/><path d="M10.832 5.25L3.368 3.37c0 2.297.575 6.316 2.871 7.464-.957 1.34-2.87 4.02-2.87 8.613l2.296-1.149c-1.148 1.723-2.297 3.445-2.297 6.89l3.445-2.296c-.574 1.722 0 3.904 2.297 5.741 0-2.297.574-4.02 1.148-5.167.148.74.601 1.327 1.192 1.722M16 22.892s0-1.838-2.297-2.297V17.15l-3.445-2.297M16 22.892s0-1.838 2.297-2.297V17.15l3.445-2.297M16 22.892c0 2.983 2.847 3.435 4.55 2.296M16 22.892c0 2.983-2.848 3.435-4.55 2.296M7.962 6.815C9.302 5.667 12.785 3.829 16 5.667c3.215-1.838 6.699 0 8.038 1.148m-2.87-1.565l7.463-1.88c0 2.297-.573 6.316-2.87 7.464.957 1.34 2.87 4.02 2.87 8.613l-2.296-1.149c1.148 1.723 2.296 3.445 2.297 6.89l-3.445-2.296c.574 1.722 0 3.904-2.297 5.741 0-2.297-.574-4.02-1.148-5.167-.148.74-.601 1.327-1.192 1.722m0 0s-.53 3.445-4.55 3.445-4.55-3.445-4.55-3.445m7.995-14.327A9.855 9.855 0 0016 10.26c-1.48 0-2.654.305-3.445.6"/><defs><linearGradient id="jpaint0_linear_36_25706" x1="16" y1="2.949" x2="16" y2="29.054" gradientUnits="userSpaceOnUse"><stop stop-color="#EFF3F6"/><stop offset="1" stop-color="#DFE3E9"/></linearGradient></defs></symbol><symbol viewBox="0 0 12 10" id="mail" xmlns="http://www.w3.org/2000/svg"><path fill-rule="evenodd" clip-rule="evenodd" d="M1.5 2.002c0-.274.226-.5.5-.5h8c.274 0 .5.226.5.5a.498.498 0 00-.277.084L6 4.901 1.777 2.086a.498.498 0 00-.277-.084zm0 1.1v4.9c0 .274.226.5.5.5h8c.274 0 .5-.226.5-.5v-4.9L6.277 5.919a.5.5 0 01-.554 0L1.5 3.103zm.5-2.6c-.826 0-1.5.674-1.5 1.5v6c0 .826.674 1.5 1.5 1.5h8c.826 0 1.5-.674 1.5-1.5v-6c0-.826-.674-1.5-1.5-1.5H2z"/></symbol><symbol viewBox="0 0 30 30" id="message" xmlns="http://www.w3.org/2000/svg"><path fill-rule="evenodd" clip-rule="evenodd" d="M20.243 3.42c-1.276-.521-2.706-.758-4.5-.753-4.425.011-7.764 2.107-9.862 5.5a11.593 11.593 0 00-1.733 6.093v.002a11.414 11.414 0 001.226 5.176 1 1 0 01.056.767l-2.182 6.547 6.547-2.182a1 1 0 01.767.056c1.615.815 3.086 1.225 5.179 1.226 1.284 0 2.269-.112 3.186-.373.917-.261 1.814-.684 2.906-1.36s1.871-1.29 2.514-1.993c.643-.704 1.184-1.536 1.759-2.685.941-1.88 1.223-3.078 1.227-5.184.004-1.794-.233-3.224-.753-4.5-.52-1.275-1.35-2.458-2.614-3.723C22.7 4.77 21.518 3.94 20.243 3.42zm.756-1.852c1.582.646 2.98 1.651 4.38 3.052 1.402 1.4 2.407 2.8 3.052 4.381.646 1.582.906 3.285.902 5.26-.005 2.413-.358 3.916-1.439 6.075-.627 1.255-1.264 2.257-2.07 3.139-.806.882-1.746 1.607-2.939 2.345-1.193.737-2.262 1.256-3.41 1.583-1.15.327-2.331.45-3.735.449-2.261 0-3.96-.43-5.701-1.255l-8.056 2.685a1 1 0 01-1.265-1.265l2.686-8.058a13.414 13.414 0 01-1.256-5.701A13.592 13.592 0 014.18 7.115C6.622 3.167 10.585.68 15.738.667c1.976-.005 3.68.255 5.26.9z"/></symbol><symbol viewBox="0 0 12 13" id="phone" xmlns="http://www.w3.org/2000/svg"><path fill-rule="evenodd" clip-rule="evenodd" d="M2.435 1.002c-.567.006-1.009.166-1.198.37-.163.177-.253.455-.235.869.018.413.143.902.335 1.417.384 1.026.995 2.046 1.336 2.565l.002.004a10.01 10.01 0 003.099 3.061l.003.003c.598.383 1.59 1.01 2.59 1.393.502.191.975.31 1.383.318.402.008.706-.09.931-.293.052-.048.133-.17.202-.398.066-.217.107-.484.115-.764a3.197 3.197 0 00-.068-.79c-.055-.241-.132-.396-.198-.473-.047-.055-.162-.143-.365-.242a4.008 4.008 0 00-.685-.25c-.53-.143-1.026-.185-1.274-.132-.125.026-.263.108-.436.27a5.101 5.101 0 00-.258.264l-.038.041a7.948 7.948 0 01-.245.257.5.5 0 01-.596.08 9.124 9.124 0 01-3.441-3.4.5.5 0 01.082-.605 7.91 7.91 0 01.26-.242l.041-.038c.1-.09.188-.171.268-.255.164-.171.245-.305.271-.425.052-.24.011-.726-.134-1.248a3.925 3.925 0 00-.25-.674c-.099-.2-.187-.313-.242-.36-.213-.181-.693-.329-1.255-.323zm-.01-1c.672-.007 1.436.156 1.912.56.207.176.368.43.491.68.128.257.235.552.318.85.158.57.251 1.246.148 1.725-.084.388-.316.686-.526.906-.1.105-.206.203-.301.289A8.124 8.124 0 006.99 7.503a5.9 5.9 0 01.3-.305c.223-.208.522-.435.91-.517.483-.102 1.165-.01 1.744.147a5 5 0 01.86.315c.251.122.508.283.686.49.215.25.341.583.414.903.075.329.104.691.093 1.042-.011.35-.062.707-.158 1.023-.092.305-.242.626-.487.848-.467.424-1.048.564-1.623.552-.57-.011-1.164-.17-1.719-.383-1.109-.423-2.18-1.105-2.771-1.484A11.01 11.01 0 011.835 6.77C1.477 6.223.822 5.134.401 4.008.19 3.445.028 2.846.003 2.285-.02 1.724.09 1.14.503.695.97.187 1.754.01 2.423.001z"/></symbol><symbol viewBox="0 0 16 17" id="plus" xmlns="http://www.w3.org/2000/svg"><path fill-rule="evenodd" clip-rule="evenodd" d="M9 1.002a1 1 0 10-2 0v6H1a1 1 0 100 2h6v6a1 1 0 102 0v-6h6a1 1 0 100-2H9v-6z"/></symbol><symbol viewBox="0 0 24 24" id="question" xmlns="http://www.w3.org/2000/svg"><path fill-rule="evenodd" clip-rule="evenodd" d="M12 2.001c-5.523 0-10 4.477-10 10s4.477 10 10 10 10-4.477 10-10-4.477-10-10-10zm-12 10c0-6.627 5.373-12 12-12s12 5.373 12 12-5.373 12-12 12-12-5.373-12-12zm12.407-4.956c-1.553-.272-2.963.577-3.467 1.968a1 1 0 01-1.88-.681c.836-2.309 3.188-3.695 5.691-3.258 1.151.202 2.229.667 3.022 1.514C16.579 7.45 17 8.606 17 10.005c0 1.877-1.433 3.137-2.515 3.837a10.761 10.761 0 01-2.23 1.09l-.043.015-.013.004-.005.002h-.002l-.296-.911.295.911a1 1 0 01-.617-1.902l.004-.001.025-.009a8.466 8.466 0 00.527-.207 8.763 8.763 0 001.268-.67C14.375 11.53 15 10.792 15 10.004c0-.98-.285-1.62-.687-2.05-.415-.443-1.048-.76-1.906-.91zM12 17.002a1 1 0 100 2h.01a1 1 0 100-2H12z"/></symbol><symbol viewBox="0 0 14 8" id="rank-hard" xmlns="http://www.w3.org/2000/svg"><path fill-rule="evenodd" clip-rule="evenodd" d="M6.684.052a1 1 0 01.632 0l6 2a1 1 0 11-.632 1.897L7 2.055 1.316 3.949a1 1 0 01-.632-1.897l6-2zm-6 6l6-2a1 1 0 01.632 0l6 2a1 1 0 11-.632 1.897L7 6.055 1.316 7.949a1 1 0 01-.632-1.897z"/></symbol><symbol viewBox="0 0 14 4" id="rank-normally" xmlns="http://www.w3.org/2000/svg"><path fill-rule="evenodd" clip-rule="evenodd" d="M6.684.052a1 1 0 01.632 0l6 2a1 1 0 11-.632 1.897L7 2.055 1.316 3.949a1 1 0 01-.632-1.897l6-2z"/></symbol><symbol viewBox="0 0 18 18" id="search" xmlns="http://www.w3.org/2000/svg"><path fill-rule="evenodd" clip-rule="evenodd" d="M2.5 8.169a5.667 5.667 0 119.756 3.922 1.015 1.015 0 00-.167.167 5.667 5.667 0 01-9.59-4.09zm10.335 6.082a7.667 7.667 0 111.414-1.414l2.958 2.958a1 1 0 01-1.414 1.414l-2.958-2.958z"/></symbol><symbol viewBox="0 0 20 21" id="task" xmlns="http://www.w3.org/2000/svg"><rect y=".002" width="20" height="20" rx="3"/><g filter="url(#sfilter0_d_153_122347)"><path fill-rule="evenodd" clip-rule="evenodd" d="M7 4.138c0-.961.76-1.804 1.775-1.804h2.45c1.015 0 1.775.843 1.775 1.804 0 .603-.271 1.038-.6 1.333.47.193.91.44 1.316.734l.599-.597-.234-.235a1 1 0 011.417-1.41l.939.942.938.943a1 1 0 01-1.417 1.41l-.232-.233-.596.595a6.333 6.333 0 11-7.533-2.147A1.75 1.75 0 017 4.138zm-1.333 7.196a4.333 4.333 0 118.666 0 4.333 4.333 0 01-8.666 0zM10 9.668a1.667 1.667 0 011.188 2.835 1 1 0 101.426 1.403A3.667 3.667 0 0010 7.668v2z"/></g><defs><linearGradient id="spaint0_linear_153_122347" x1="10" y1="20.002" x2="10" y2=".001" gradientUnits="userSpaceOnUse"><stop stop-color="#FFB300"/><stop offset="1" stop-color="#FECF4B"/></linearGradient><filter id="sfilter0_d_153_122347" x="2" y="2.002" width="16" height="17" filterUnits="userSpaceOnUse" color-interpolation-filters="sRGB"><feFlood flood-opacity="0" result="BackgroundImageFix"/><feColorMatrix in="SourceAlpha" values="0 0 0 0 0 0 0 0 0 0 0 0 0 0 0 0 0 0 127 0" result="hardAlpha"/><feOffset dy="1"/><feColorMatrix values="0 0 0 0 0.109804 0 0 0 0 0.109804 0 0 0 0 0.109804 0 0 0 0.1 0"/><feBlend in2="BackgroundImageFix" result="effect1_dropShadow_153_122347"/><feBlend in="SourceGraphic" in2="effect1_dropShadow_153_122347" result="shape"/></filter></defs></symbol><symbol viewBox="0 0 27 30" id="time" xmlns="http://www.w3.org/2000/svg"><path fill-rule="evenodd" clip-rule="evenodd" d="M9.55 2.665c-.27 0-.55.237-.55.608 0 .244.105.464.632.714.505.24 1.144.378 1.816.523l.21.046c.218.047.448.046.672-.005l.308-.07c.644-.143 1.246-.278 1.732-.507.53-.25.63-.466.63-.701 0-.37-.28-.608-.55-.608h-4.9zM7 3.273C7 1.868 8.107.665 9.55.665h4.9C15.893.665 17 1.868 17 3.273c0 1.36-.93 2.112-1.777 2.51a7.208 7.208 0 01-1.126.404c2.04.37 3.894 1.27 5.416 2.552l2.53-2.524-1.172-1.178a1 1 0 111.417-1.41l1.877 1.885 1.877 1.886a1 1 0 11-1.417 1.41l-1.171-1.175-2.527 2.52a11.62 11.62 0 012.74 7.512c0 6.444-5.224 11.667-11.667 11.667S.333 24.109.333 17.665c0-5.717 4.112-10.473 9.54-11.473a6.99 6.99 0 01-1.1-.398C7.924 5.39 7 4.63 7 3.273zM2.333 17.665C2.333 12.327 6.661 8 12 8a9.667 9.667 0 110 19.333c-5.339 0-9.667-4.328-9.667-9.667zM12 13.332a4.333 4.333 0 013.09 7.372 1 1 0 101.425 1.403A6.333 6.333 0 0012 11.332v2z"/></symbol><symbol viewBox="0 0 20 21" id="todo" xmlns="http://www.w3.org/2000/svg"><rect y=".002" width="20" height="20" rx="3"/><g filter="url(#ufilter0_d_153_122451)"><path fill-rule="evenodd" clip-rule="evenodd" d="M5.098 5.1a.333.333 0 01.235-.098h7.334a1 1 0 100-2H5.333A2.333 2.333 0 003 5.335v9.333a2.333 2.333 0 002.333 2.334h9.334A2.333 2.333 0 0017 14.668v-4.666a1 1 0 10-2 0v4.666a.333.333 0 01-.333.334H5.333A.333.333 0 015 14.668V5.335c0-.088.035-.173.098-.236zm12.276.275a1 1 0 00-1.414-1.414L10 9.921 8.707 8.628a1 1 0 00-1.414 1.414l2 2a1 1 0 001.414 0l6.667-6.667z"/></g><defs><linearGradient id="upaint0_linear_153_122451" x1="10" y1=".001" x2="10" y2="20.002" gradientUnits="userSpaceOnUse"><stop stop-color="#3A9EFF"/><stop offset="1" stop-color="#1F8EFA"/></linearGradient><filter id="ufilter0_d_153_122451" x="2" y="2.002" width="16" height="17" filterUnits="userSpaceOnUse" color-interpolation-filters="sRGB"><feFlood flood-opacity="0" result="BackgroundImageFix"/><feColorMatrix in="SourceAlpha" values="0 0 0 0 0 0 0 0 0 0 0 0 0 0 0 0 0 0 127 0" result="hardAlpha"/><feOffset dy="1"/><feColorMatrix values="0 0 0 0 0.109804 0 0 0 0 0.109804 0 0 0 0 0.109804 0 0 0 0.1 0"/><feBlend in2="BackgroundImageFix" result="effect1_dropShadow_153_122451"/><feBlend in="SourceGraphic" in2="effect1_dropShadow_153_122451" result="shape"/></filter></defs></symbol><symbol viewBox="0 0 28 29" id="types" xmlns="http://www.w3.org/2000/svg"><path d="M4 10c1.1 0 2 .9 2 2s-.9 2-2 2-2-.9-2-2 .9-2 2-2zm0-2c-2.2 0-4 1.8-4 4s1.8 4 4 4 4-1.8 4-4-1.8-4-4-4zM14 16c1.1 0 2 .9 2 2s-.9 2-2 2-2-.9-2-2 .9-2 2-2zm0-2c-2.2 0-4 1.8-4 4s1.8 4 4 4 4-1.8 4-4-1.8-4-4-4zM24 8c1.1 0 2 .9 2 2s-.9 2-2 2-2-.9-2-2 .9-2 2-2zm0-2c-2.2 0-4 1.8-4 4s1.8 4 4 4 4-1.8 4-4-1.8-4-4-4zM3 28v-8c0-.6.4-1 1-1s1 .4 1 1v8c0 .6-.4 1-1 1s-1-.4-1-1zM13 11V1c0-.6.4-1 1-1s1 .4 1 1v10c0 .6-.4 1-1 1s-1-.4-1-1zM23 27V17c0-.6.4-1 1-1s1 .4 1 1v10c0 .6-.4 1-1 1s-1-.4-1-1zM23 3V1c0-.6.4-1 1-1s1 .4 1 1v2c0 .6-.4 1-1 1s-1-.4-1-1zM3 5V1c0-.6.4-1 1-1s1 .4 1 1v4c0 .6-.4 1-1 1s-1-.4-1-1zM13 27v-2c0-.6.4-1 1-1s1 .4 1 1v2c0 .6-.4 1-1 1s-1-.4-1-1z"/></symbol><symbol viewBox="0 0 25 24" id="weather" xmlns="http://www.w3.org/2000/svg"><path fill-rule="evenodd" clip-rule="evenodd" d="M9.082.049c4.09-.417 8.026 2.109 9.396 5.953h.523c2.81.003 5.292 2.023 5.866 4.774.575 2.75-.892 5.595-3.466 6.722a1 1 0 11-.802-1.832c1.707-.748 2.692-2.657 2.31-4.482-.38-1.824-2.046-3.18-3.91-3.182H17.74a1 1 0 01-.968-.75c-.852-3.3-4.116-5.557-7.487-5.214-3.37.343-6.113 3.212-6.282 6.616a7.062 7.062 0 002.621 5.817 1 1 0 11-1.248 1.562 9.061 9.061 0 01-3.37-7.478C1.223 4.16 4.731.49 9.081.049zM9 15.002a1 1 0 100 2h.01a1 1 0 100-2H9zm-1 5a1 1 0 011-1h.01a1 1 0 110 2H9a1 1 0 01-1-1zm5-3a1 1 0 100 2h.01a1 1 0 100-2H13zm-1 5a1 1 0 011-1h.01a1 1 0 110 2H13a1 1 0 01-1-1zm1-9a1 1 0 000 2h.01a1 1 0 100-2H13zm3 3a1 1 0 011-1h.01a1 1 0 110 2H17a1 1 0 01-1-1zm1 3a1 1 0 100 2h.01a1 1 0 100-2H17z"/></symbol></svg>