<svg width="18" height="22" fill="none" xmlns="http://www.w3.org/2000/svg"><path fill-rule="evenodd" clip-rule="evenodd" d="M17.163 13.356a8.5 8.5 0 00-5.33-10.375 1 1 0 10-.667 1.886 6.5 6.5 0 012.405 10.747l-1.904 2.027v-2.475a1 1 0 10-2 0v5a1 1 0 001 1h5a1 1 0 000-2h-2.688l2.04-2.171a8.5 8.5 0 002.144-3.639zm-9.83-5.523a1 1 0 001-1v-5a1 1 0 00-1.004-1H2.333a1 1 0 000 2H5.02l-2.038 2.17a8.5 8.5 0 003.184 14.014 1 1 0 00.668-1.886A6.5 6.5 0 014.429 6.384l1.904-2.028v2.477a1 1 0 001 1z" fill="#516173"/></svg>