<svg width="121" height="33" fill="none" xmlns="http://www.w3.org/2000/svg"><path d="M43.427 11.62h-3.971V9.703h10.24v1.919h-3.99V23h-2.28V11.62zm8.213-1.918h4.675c1.684 0 2.945.392 3.78 1.178.85.772 1.274 1.824 1.274 3.154 0 1.342-.425 2.406-1.273 3.192-.836.772-2.097 1.159-3.781 1.159h-2.413v4.617H51.64v-13.3zm4.675 6.764c.975 0 1.678-.203 2.109-.608.443-.418.665-1.026.665-1.824 0-.786-.222-1.38-.665-1.786-.43-.418-1.134-.627-2.11-.627h-2.412v4.845h2.413zm7.195-3.534h1.956v1.615a2.943 2.943 0 011.083-1.254c.507-.342 1.102-.513 1.786-.513.14 0 .26.006.361.019.114.012.215.025.304.038.101.012.19.025.266.038v1.976a4.754 4.754 0 01-.418-.057 4.44 4.44 0 00-.456-.057 7.22 7.22 0 00-.55-.02c-.685 0-1.223.197-1.616.59-.38.38-.57.912-.57 1.596v6.099H63.51v-10.07zm10.979 10.222c-1.305 0-2.344-.393-3.116-1.178-.76-.798-1.14-1.945-1.14-3.44v-1.348c0-.684.095-1.299.285-1.843a3.943 3.943 0 01.855-1.387c.38-.38.83-.672 1.349-.874a4.927 4.927 0 011.767-.304c.646 0 1.228.101 1.748.304.532.202.982.494 1.349.874.38.38.665.842.855 1.387.203.544.304 1.159.304 1.843v1.349c0 1.494-.386 2.64-1.16 3.439-.76.785-1.791 1.178-3.096 1.178zm0-1.843c.658 0 1.171-.216 1.539-.646.38-.43.57-1.14.57-2.128v-1.35c0-.873-.19-1.52-.57-1.937-.368-.418-.88-.627-1.54-.627-.658 0-1.177.209-1.557.627-.367.418-.551 1.064-.551 1.938v1.349c0 .988.184 1.697.55 2.128.38.43.9.646 1.559.646zm5.207 3.686c.278 0 .513-.032.703-.095a.82.82 0 00.475-.304c.126-.152.215-.355.266-.608.05-.254.076-.583.076-.988v-10.07h2.128v10.07c0 .747-.057 1.361-.171 1.843-.114.494-.31.886-.59 1.178-.278.291-.652.494-1.12.608-.47.114-1.058.17-1.767.17v-1.804zM82.28 12c-.368 0-.684-.133-.95-.4a1.297 1.297 0 01-.4-.95 1.3 1.3 0 01.4-.95 1.3 1.3 0 01.95-.398c.367 0 .684.133.95.399.266.266.399.582.399.95 0 .367-.133.684-.4.95a1.297 1.297 0 01-.95.399zm7.7 11.154a4.582 4.582 0 01-1.71-.304 3.607 3.607 0 01-1.311-.893 4.087 4.087 0 01-.855-1.444c-.19-.57-.285-1.229-.285-1.976v-1.35c0-1.418.36-2.507 1.083-3.267.734-.76 1.729-1.14 2.983-1.14s2.242.38 2.964 1.14c.734.76 1.102 1.862 1.102 3.306v1.349h-5.985c.013 1.038.196 1.767.55 2.185.355.418.843.627 1.464.627.52 0 .905-.127 1.159-.38a1.61 1.61 0 00.494-.874h2.128c-.177.95-.583 1.69-1.216 2.223-.62.532-1.476.798-2.565.798zm-.057-8.607c-.608 0-1.083.183-1.425.55-.33.368-.507.995-.532 1.882h3.97c-.025-.887-.208-1.514-.55-1.881-.342-.368-.83-.551-1.463-.551zm9.927 8.607a4.593 4.593 0 01-1.71-.304 3.607 3.607 0 01-1.31-.893 4.087 4.087 0 01-.855-1.444c-.19-.57-.285-1.229-.285-1.976v-1.35c0-.683.095-1.298.285-1.842a3.946 3.946 0 01.855-1.387c.367-.38.804-.672 1.31-.874.508-.203 1.078-.304 1.71-.304 1.179 0 2.116.304 2.813.912.697.608 1.083 1.4 1.159 2.375h-2.166a1.85 1.85 0 00-.551-1.007c-.279-.292-.697-.437-1.254-.437-.608 0-1.096.209-1.463.627-.367.418-.551 1.064-.551 1.938v1.349c0 .988.184 1.697.55 2.128.368.43.856.646 1.464.646.557 0 .975-.146 1.254-.437.291-.292.475-.627.551-1.007h2.166c-.152 1.026-.557 1.83-1.216 2.413-.659.582-1.577.874-2.755.874zm9.857-.152c-.608 0-1.121-.057-1.539-.171a2.357 2.357 0 01-1.007-.551c-.253-.266-.437-.608-.551-1.026-.114-.43-.171-.95-.171-1.558v-4.96h-1.387v-1.804h1.387v-2.28h2.147v2.28h2.014v1.805h-2.014v4.959c0 .595.095.994.285 1.197.19.202.52.304.988.304h.741v1.805h-.893zm6.391.152c-.684 0-1.273-.076-1.767-.228a3.674 3.674 0 01-1.216-.627 2.637 2.637 0 01-.722-.95 3.705 3.705 0 01-.266-1.216h2.128c.051.38.203.684.456.912.253.228.716.342 1.387.342.709 0 1.197-.108 1.463-.323a1.01 1.01 0 00.418-.836c0-.165-.025-.317-.076-.456a.723.723 0 00-.285-.38c-.139-.114-.348-.222-.627-.323a7.438 7.438 0 00-1.121-.285c-1.203-.24-2.09-.59-2.66-1.045-.557-.456-.836-1.121-.836-1.995 0-.874.304-1.584.912-2.128.608-.558 1.545-.836 2.812-.836 1.254 0 2.172.278 2.755.836.595.544.918 1.254.969 2.128h-2.109c-.051-.38-.19-.672-.418-.874-.215-.216-.614-.323-1.197-.323-.608 0-1.032.101-1.273.304-.241.19-.361.462-.361.817 0 .152.025.297.076.437a.927.927 0 00.285.36c.139.102.336.197.589.286.266.088.602.17 1.007.247.659.114 1.216.26 1.672.437.469.164.849.373 1.14.627.291.24.5.532.627.874.139.342.209.74.209 1.197 0 .886-.323 1.615-.969 2.185-.633.557-1.634.836-3.002.836z" fill="#fff"/><path fill-rule="evenodd" clip-rule="evenodd" d="M30.209 23.365A15.93 15.93 0 0032 16.002c0-3.002-.826-5.81-2.264-8.21l-.065.225c-.317 1.055-.823 2.226-1.65 3.155 1.052 1.703 2.295 4.389 2.295 8.274 0 .547-.265 1.057-.707 1.372.27.748.481 1.584.6 2.547zm-2.314 3.338a1.678 1.678 0 01-.198-.114l-.897-.598c-.417 1.348-1.3 2.647-2.632 3.771a16.073 16.073 0 003.727-3.06zm-4.678 3.582a1.684 1.684 0 01-2.011-1.652c0-.27-.01-.53-.026-.78l-.042.057c-.929 1.259-2.554 2.407-5.138 2.407s-4.21-1.148-5.138-2.407a5.315 5.315 0 01-.042-.058c-.017.25-.026.51-.026.781a1.684 1.684 0 01-2.011 1.652A15.932 15.932 0 0016 32.001c2.597 0 5.049-.618 7.217-1.716zm-15.385-.523C6.5 28.638 5.617 27.34 5.2 25.992l-.897.597c-.064.043-.13.08-.198.114a16.074 16.074 0 003.727 3.06zm-6.04-6.397A15.93 15.93 0 010 16.002c0-3.002.826-5.81 2.264-8.21l.065.225c.317 1.055.823 2.226 1.65 3.155-1.052 1.703-2.295 4.389-2.295 8.274 0 .547.265 1.057.707 1.372-.27.748-.481 1.584-.6 2.547zm5.45-20.756l3.558.896.055-.014c1.512-.392 3.328-.464 5.145.3 1.817-.764 3.633-.692 5.145-.3l.055.014 3.558-.896A15.925 15.925 0 0016 .002c-3.233 0-6.242.958-8.758 2.607z" fill="#1F8EFA"/><path d="M3.11 3.038a.421.421 0 01.361-.076l7.35 1.85c.115-.034.232-.068.35-.098 1.457-.378 3.167-.399 4.829.473 1.662-.872 3.372-.85 4.828-.473.119.03.236.064.352.099l7.349-1.851a.421.421 0 01.524.408c0 1.176-.147 2.798-.592 4.284-.391 1.303-1.037 2.581-2.093 3.309 1.026 1.467 2.685 4.154 2.685 8.484a.42.42 0 01-.61.376l-.928-.464c.843 1.422 1.538 3.117 1.538 5.83a.42.42 0 01-.655.35L25.8 23.806c.139 1.691-.667 3.57-2.647 5.155a.421.421 0 01-.684-.329c0-1.686-.32-3.047-.713-4.084a3.276 3.276 0 01-.828.887 4.932 4.932 0 01-.807 1.724c-.708.961-1.968 1.894-4.121 1.894-2.153 0-3.413-.933-4.121-1.893a4.934 4.934 0 01-.807-1.725 3.284 3.284 0 01-.828-.887c-.394 1.037-.713 2.398-.713 4.084a.421.421 0 01-.684.329c-1.98-1.584-2.786-3.464-2.647-5.155l-2.598 1.731a.42.42 0 01-.655-.35c0-2.712.695-4.407 1.538-5.83l-.928.465a.421.421 0 01-.61-.377c0-4.33 1.659-7.016 2.685-8.483-1.056-.728-1.702-2.006-2.093-3.31-.445-1.485-.592-3.107-.592-4.283 0-.13.06-.252.163-.332z" fill="url(#paint0_linear_36_25706)"/><path d="M10.832 5.25L3.368 3.37c0 2.297.575 6.316 2.871 7.464-.957 1.34-2.87 4.02-2.87 8.613l2.296-1.149c-1.148 1.723-2.297 3.445-2.297 6.89l3.445-2.296c-.574 1.722 0 3.904 2.297 5.741 0-2.297.574-4.02 1.148-5.167.148.74.601 1.327 1.192 1.722M16 22.892s0-1.838-2.297-2.297V17.15l-3.445-2.297M16 22.892s0-1.838 2.297-2.297V17.15l3.445-2.297M16 22.892c0 2.983 2.847 3.435 4.55 2.296M16 22.892c0 2.983-2.848 3.435-4.55 2.296M7.962 6.815C9.302 5.667 12.785 3.829 16 5.667c3.215-1.838 6.699 0 8.038 1.148m-2.87-1.565l7.463-1.88c0 2.297-.573 6.316-2.87 7.464.957 1.34 2.87 4.02 2.87 8.613l-2.296-1.149c1.148 1.723 2.296 3.445 2.297 6.89l-3.445-2.296c.574 1.722 0 3.904-2.297 5.741 0-2.297-.574-4.02-1.148-5.167-.148.74-.601 1.327-1.192 1.722m0 0s-.53 3.445-4.55 3.445-4.55-3.445-4.55-3.445m7.995-14.327A9.855 9.855 0 0016 10.26c-1.48 0-2.654.305-3.445.6" stroke="#1F8EFA" stroke-linecap="round" stroke-linejoin="round"/><defs><linearGradient id="paint0_linear_36_25706" x1="16" y1="2.949" x2="16" y2="29.054" gradientUnits="userSpaceOnUse"><stop stop-color="#EFF3F6"/><stop offset="1" stop-color="#DFE3E9"/></linearGradient></defs></svg>