<svg width="20" height="21" fill="none" xmlns="http://www.w3.org/2000/svg"><rect y=".002" width="20" height="20" rx="3" fill="url(#paint0_linear_153_122347)"/><g filter="url(#filter0_d_153_122347)"><path fill-rule="evenodd" clip-rule="evenodd" d="M7 4.138c0-.961.76-1.804 1.775-1.804h2.45c1.015 0 1.775.843 1.775 1.804 0 .603-.271 1.038-.6 1.333.47.193.91.44 1.316.734l.599-.597-.234-.235a1 1 0 011.417-1.41l.939.942.938.943a1 1 0 01-1.417 1.41l-.232-.233-.596.595a6.333 6.333 0 11-7.533-2.147A1.75 1.75 0 017 4.138zm-1.333 7.196a4.333 4.333 0 118.666 0 4.333 4.333 0 01-8.666 0zM10 9.668a1.667 1.667 0 011.188 2.835 1 1 0 101.426 1.403A3.667 3.667 0 0010 7.668v2z" fill="#fff"/></g><defs><linearGradient id="paint0_linear_153_122347" x1="10" y1="20.002" x2="10" y2=".001" gradientUnits="userSpaceOnUse"><stop stop-color="#FFB300"/><stop offset="1" stop-color="#FECF4B"/></linearGradient><filter id="filter0_d_153_122347" x="2" y="2.002" width="16" height="17" filterUnits="userSpaceOnUse" color-interpolation-filters="sRGB"><feFlood flood-opacity="0" result="BackgroundImageFix"/><feColorMatrix in="SourceAlpha" values="0 0 0 0 0 0 0 0 0 0 0 0 0 0 0 0 0 0 127 0" result="hardAlpha"/><feOffset dy="1"/><feColorMatrix values="0 0 0 0 0.109804 0 0 0 0 0.109804 0 0 0 0 0.109804 0 0 0 0.1 0"/><feBlend in2="BackgroundImageFix" result="effect1_dropShadow_153_122347"/><feBlend in="SourceGraphic" in2="effect1_dropShadow_153_122347" result="shape"/></filter></defs></svg>