<svg width="20" height="21" fill="none" xmlns="http://www.w3.org/2000/svg"><rect y=".002" width="20" height="20" rx="3" fill="url(#paint0_linear_153_122451)"/><g filter="url(#filter0_d_153_122451)"><path fill-rule="evenodd" clip-rule="evenodd" d="M5.098 5.1a.333.333 0 01.235-.098h7.334a1 1 0 100-2H5.333A2.333 2.333 0 003 5.335v9.333a2.333 2.333 0 002.333 2.334h9.334A2.333 2.333 0 0017 14.668v-4.666a1 1 0 10-2 0v4.666a.333.333 0 01-.333.334H5.333A.333.333 0 015 14.668V5.335c0-.088.035-.173.098-.236zm12.276.275a1 1 0 00-1.414-1.414L10 9.921 8.707 8.628a1 1 0 00-1.414 1.414l2 2a1 1 0 001.414 0l6.667-6.667z" fill="#fff"/></g><defs><linearGradient id="paint0_linear_153_122451" x1="10" y1=".001" x2="10" y2="20.002" gradientUnits="userSpaceOnUse"><stop stop-color="#3A9EFF"/><stop offset="1" stop-color="#1F8EFA"/></linearGradient><filter id="filter0_d_153_122451" x="2" y="2.002" width="16" height="17" filterUnits="userSpaceOnUse" color-interpolation-filters="sRGB"><feFlood flood-opacity="0" result="BackgroundImageFix"/><feColorMatrix in="SourceAlpha" values="0 0 0 0 0 0 0 0 0 0 0 0 0 0 0 0 0 0 127 0" result="hardAlpha"/><feOffset dy="1"/><feColorMatrix values="0 0 0 0 0.109804 0 0 0 0 0.109804 0 0 0 0 0.109804 0 0 0 0.1 0"/><feBlend in2="BackgroundImageFix" result="effect1_dropShadow_153_122451"/><feBlend in="SourceGraphic" in2="effect1_dropShadow_153_122451" result="shape"/></filter></defs></svg>