<svg width="25" height="24" fill="none" xmlns="http://www.w3.org/2000/svg"><path fill-rule="evenodd" clip-rule="evenodd" d="M9.082.049c4.09-.417 8.026 2.109 9.396 5.953h.523c2.81.003 5.292 2.023 5.866 4.774.575 2.75-.892 5.595-3.466 6.722a1 1 0 11-.802-1.832c1.707-.748 2.692-2.657 2.31-4.482-.38-1.824-2.046-3.18-3.91-3.182H17.74a1 1 0 01-.968-.75c-.852-3.3-4.116-5.557-7.487-5.214-3.37.343-6.113 3.212-6.282 6.616a7.062 7.062 0 002.621 5.817 1 1 0 11-1.248 1.562 9.061 9.061 0 01-3.37-7.478C1.223 4.16 4.731.49 9.081.049zM9 15.002a1 1 0 100 2h.01a1 1 0 100-2H9zm-1 5a1 1 0 011-1h.01a1 1 0 110 2H9a1 1 0 01-1-1zm5-3a1 1 0 100 2h.01a1 1 0 100-2H13zm-1 5a1 1 0 011-1h.01a1 1 0 110 2H13a1 1 0 01-1-1zm1-9a1 1 0 000 2h.01a1 1 0 100-2H13zm3 3a1 1 0 011-1h.01a1 1 0 110 2H17a1 1 0 01-1-1zm1 3a1 1 0 100 2h.01a1 1 0 100-2H17z" fill="#0085F0"/></svg>