<svg width="26" height="30" fill="none" xmlns="http://www.w3.org/2000/svg"><path fill-rule="evenodd" clip-rule="evenodd" d="M13 .667a9 9 0 00-9 9c0 4.519-.967 7.351-1.878 9.02-.457.838-.905 1.394-1.223 1.73a4.354 4.354 0 01-.451.415l-.012.01.001-.002.004-.002.002-.002.003.003L1 22.666h24l.553-1.829.003-.003.001.001.002.002.003.002.002.001-.012-.009a4.357 4.357 0 01-.451-.416c-.318-.335-.767-.89-1.223-1.728C22.967 17.018 22 14.186 22 9.667a9 9 0 00-9-9zm9.747 20H3.253c.205-.298.415-.638.625-1.022C4.967 17.65 6 14.481 6 9.667a7 7 0 0114 0c0 4.814 1.033 7.982 2.122 9.978.21.384.42.724.625 1.022zm-11.189 5.831a1 1 0 10-1.73 1.004 3.667 3.667 0 006.344 0 1 1 0 00-1.73-1.004 1.667 1.667 0 01-2.884 0z" fill="#fff"/></svg>