<svg width="26" height="30" fill="none" xmlns="http://www.w3.org/2000/svg"><path fill-rule="evenodd" clip-rule="evenodd" d="M3.667.667A3.667 3.667 0 000 4.333v21.334a3.666 3.666 0 003.667 3.666H17a1 1 0 100-2H3.667A1.667 1.667 0 012 25.667V4.333a1.667 1.667 0 011.667-1.666h16c.92 0 1.666.746 1.666 1.666v.471a3.667 3.667 0 00-2.666 3.528v14.222a1 1 0 00.142.515l2.667 4.444a1 1 0 001.715 0l2.667-4.444a1 1 0 00.142-.515V8.332a3.667 3.667 0 00-2.667-3.528v-.47A3.667 3.667 0 0019.667.666h-16zm18.626 5.999a1.004 1.004 0 00.08 0A1.666 1.666 0 0124 8.332v13.945l-1.667 2.778-1.666-2.778V8.332a1.667 1.667 0 011.626-1.666zm-16.96 11a1 1 0 011-1h8a1 1 0 110 2h-8a1 1 0 01-1-1zm1-6.334a1 1 0 100 2H9a1 1 0 100-2H6.333zm-1-4.333a1 1 0 011-1h8a1 1 0 110 2h-8a1 1 0 01-1-1zm1 15.001a1 1 0 100 2h5.334a1 1 0 000-2H6.333z" fill="#fff"/></svg>